<svg width="16" height="17" viewBox="0 0 16 17" fill="none" xmlns="http://www.w3.org/2000/svg">
<path fill-rule="evenodd" clip-rule="evenodd" d="M13.9998 4.7822C13.9998 6.13459 12.903 7.23139 11.5506 7.23139C10.1982 7.23139 9.10205 6.13459 9.10205 4.7822C9.10205 3.4298 10.1982 2.33301 11.5506 2.33301C12.903 2.33301 13.9998 3.4298 13.9998 4.7822Z" stroke="white" stroke-width="0.999996" stroke-linecap="round" stroke-linejoin="round"/>
<path fill-rule="evenodd" clip-rule="evenodd" d="M6.89729 4.7822C6.89729 6.13459 5.8011 7.23139 4.4481 7.23139C3.09631 7.23139 1.99951 6.13459 1.99951 4.7822C1.99951 3.4298 3.09631 2.33301 4.4481 2.33301C5.8011 2.33301 6.89729 3.4298 6.89729 4.7822Z" stroke="white" stroke-width="0.999996" stroke-linecap="round" stroke-linejoin="round"/>
<path fill-rule="evenodd" clip-rule="evenodd" d="M13.9998 11.8408C13.9998 13.1932 12.903 14.2894 11.5506 14.2894C10.1982 14.2894 9.10205 13.1932 9.10205 11.8408C9.10205 10.4884 10.1982 9.3916 11.5506 9.3916C12.903 9.3916 13.9998 10.4884 13.9998 11.8408Z" stroke="white" stroke-width="0.999996" stroke-linecap="round" stroke-linejoin="round"/>
<path fill-rule="evenodd" clip-rule="evenodd" d="M6.89729 11.8408C6.89729 13.1932 5.8011 14.2894 4.4481 14.2894C3.09631 14.2894 1.99951 13.1932 1.99951 11.8408C1.99951 10.4884 3.09631 9.3916 4.4481 9.3916C5.8011 9.3916 6.89729 10.4884 6.89729 11.8408Z" stroke="white" stroke-width="0.999996" stroke-linecap="round" stroke-linejoin="round"/>
</svg>
