<svg width="16" height="17" viewBox="0 0 16 17" fill="none" xmlns="http://www.w3.org/2000/svg">
<path fill-rule="evenodd" clip-rule="evenodd" d="M7.99967 7.33105C8.92025 7.33105 9.66633 8.07713 9.66633 8.99772C9.66633 9.9183 8.92025 10.6644 7.99967 10.6644C7.07909 10.6644 6.33301 9.9183 6.33301 8.99772C6.33301 8.07713 7.07909 7.33105 7.99967 7.33105Z" stroke="#130F26" stroke-width="0.999996" stroke-linecap="round" stroke-linejoin="round"/>
<path fill-rule="evenodd" clip-rule="evenodd" d="M13.445 5.83088V5.83088C12.9893 5.03605 11.9805 4.76408 11.192 5.22307C10.5062 5.62147 9.64903 5.12297 9.64903 4.32551C9.64903 3.40819 8.91024 2.66406 7.9995 2.66406V2.66406C7.08876 2.66406 6.34997 3.40819 6.34997 4.32551C6.34997 5.12297 5.49284 5.62147 4.80766 5.22307C4.01853 4.76408 3.00972 5.03605 2.55402 5.83088C2.09898 6.62572 2.369 7.64181 3.15813 8.10014C3.84331 8.4992 3.84331 9.49554 3.15813 9.89461C2.369 10.3536 2.09898 11.3697 2.55402 12.1639C3.00972 12.9587 4.01853 13.2307 4.80701 12.7723H4.80766C5.49284 12.3733 6.34997 12.8718 6.34997 13.6692V13.6692C6.34997 14.5866 7.08876 15.3307 7.9995 15.3307V15.3307C8.91024 15.3307 9.64903 14.5866 9.64903 13.6692V13.6692C9.64903 12.8718 10.5062 12.3733 11.192 12.7723C11.9805 13.2307 12.9893 12.9587 13.445 12.1639C13.9007 11.3697 13.63 10.3536 12.8415 9.89461H12.8409C12.1557 9.49554 12.1557 8.4992 12.8415 8.10014C13.63 7.64181 13.9007 6.62572 13.445 5.83088Z" stroke="#130F26" stroke-width="0.999996" stroke-linecap="round" stroke-linejoin="round"/>
</svg>
