<svg width="16" height="17" viewBox="0 0 16 17" fill="none" xmlns="http://www.w3.org/2000/svg">
<path fill-rule="evenodd" clip-rule="evenodd" d="M7.99949 2.66602C6.64206 2.66602 6.51372 5.03036 5.70557 5.86572C4.89742 6.70109 2.38498 5.74595 2.0359 7.22868C1.68756 8.71218 3.94774 9.21552 4.22641 10.4883C4.50655 11.761 3.12566 13.5493 4.30561 14.4392C5.48557 15.3284 6.75573 13.3158 7.99949 13.3158C9.24324 13.3158 10.5134 15.3284 11.6934 14.4392C12.8733 13.5493 11.4932 11.761 11.7726 10.4883C12.052 9.21552 14.3114 8.71218 13.9631 7.22868C13.6147 5.74595 11.1015 6.70109 10.2941 5.86572C9.48598 5.03036 9.35691 2.66602 7.99949 2.66602Z" stroke="#130F26" stroke-width="0.999996" stroke-linecap="round" stroke-linejoin="round"/>
</svg>
