<svg width="93" height="93" viewBox="0 0 93 93" fill="none" xmlns="http://www.w3.org/2000/svg">
<path d="M62.2029 77.9896L68.9477 86.6858C76.6686 82.3476 83.0166 75.8205 87.1702 67.9327L79.7741 53.7942L90.3796 60.2225C91.7598 55.8121 92.5151 51.1189 92.5151 46.2483C92.5151 44.2435 92.3718 42.2715 92.1307 40.3324L77.6127 28.2511L89.4748 29.6643C87.3393 24.0509 84.149 18.9699 80.1517 14.6514L66.5514 11.6015L74.7287 9.66899C66.9813 3.6152 57.2676 0 46.7143 0C36.1609 0 26.4474 3.6152 18.7 9.66899L26.8771 11.6015L13.2769 14.6514C9.27943 18.9633 6.08935 24.0509 3.95394 29.6643L15.8159 28.2511L1.29769 40.3324C1.05029 42.2715 0.913574 44.2435 0.913574 46.2483C0.913574 51.1189 1.66227 55.8121 3.04899 60.2225L13.6544 53.7942L6.25862 67.9327C10.4123 75.8205 16.7599 82.3476 24.4813 86.6858L31.226 77.9896V89.782C36.0633 91.537 41.2847 92.5032 46.7209 92.5032C52.157 92.5032 57.3783 91.5432 62.2158 89.782V77.9896H62.2029Z" fill="#FFC248"/>
<path d="M79.7809 53.8004L83.1989 55.871L77.6128 51.2238L89.475 52.637C87.3395 47.0236 84.1491 41.9426 80.1518 37.6241L66.5515 34.5742L74.7288 32.6417C66.9815 26.5878 57.2678 22.9727 46.7145 22.9727C36.1611 22.9727 26.4476 26.5878 18.7002 32.6417L26.8773 34.5742L13.277 37.6241C9.27962 41.936 6.08952 47.0236 3.9541 52.637L15.8161 51.2238L10.2301 55.871L13.6481 53.8004L6.25228 67.9392C8.04267 71.331 10.2367 74.4726 12.7692 77.2993L13.6416 76.7666L13.1468 77.7135C16.4216 81.2693 20.2366 84.3127 24.4749 86.6923L31.2197 77.9961V89.788C36.0569 91.5429 41.2783 92.5092 46.7145 92.5092C52.1507 92.5092 57.3723 91.5497 62.2092 89.788V77.9961L68.954 86.6923C73.1924 84.3127 77.0076 81.2693 80.2822 77.7135L79.7877 76.7666L80.6599 77.2993C83.1921 74.4726 85.3928 71.3373 87.1765 67.9392L79.7809 53.8004Z" fill="#E99E09"/>
<path d="M57.3068 68.222C56.1999 69.4379 54.8783 70.8972 53.5501 72.3565C49.9108 76.3594 43.6608 76.3594 40.028 72.3565L36.1153 68.0512C34.6569 66.4472 35.1387 63.8577 37.0918 62.9504C41.0111 61.1229 47.834 59.3617 56.2259 63.0752C58.2374 63.9626 58.791 66.5851 57.3068 68.222Z" fill="#FFC248"/>
<path d="M71.5648 41.4294L66.9291 32.8844C66.7993 32.6412 66.8055 32.3388 66.9488 32.1022L70.0998 26.9423C70.4707 26.331 69.8913 25.5751 69.2467 25.8315L64.3969 27.8099C63.804 28.0532 63.2313 27.409 63.4915 26.7977L65.1522 22.9261C65.4124 22.3083 64.833 21.6707 64.2407 21.9205L57.3329 24.8323C56.773 25.069 56.2131 24.5103 56.3954 23.9056L57.6779 19.6265C57.8864 18.9363 57.1373 18.3644 56.5842 18.7917L47.1246 26.0155C46.8772 26.2061 46.5386 26.2061 46.2913 26.0155L36.8316 18.7917C36.2783 18.371 35.5295 18.9363 35.7379 19.6265L37.0204 23.9056C37.2027 24.5103 36.6363 25.0624 36.0829 24.8323L29.1754 21.9205C28.5829 21.6707 28.0035 22.3148 28.2639 22.9261L29.9241 26.7977C30.1845 27.409 29.6116 28.0532 29.0191 27.8099L24.1689 25.8315C23.5243 25.5685 22.9449 26.331 23.316 26.9423L26.4671 32.1022C26.6103 32.3388 26.6168 32.6412 26.4866 32.8844L21.8447 41.4294C21.6624 41.7712 21.7535 42.1984 22.0595 42.4219L33.1077 50.4411C33.3616 50.6251 33.4787 50.9669 33.3876 51.2824L29.4033 63.7645C29.3251 64.0278 29.3967 64.3171 29.592 64.514L30.9332 65.6511C34.5725 68.7404 39.8134 68.964 43.7001 66.1969C45.3798 65.0003 46.7144 64.034 46.7144 64.034C46.7144 64.034 48.049 65.0003 49.7287 66.1969C53.609 68.9572 58.8564 68.7342 62.489 65.6511L63.8304 64.514C64.0192 64.3171 64.0906 64.0278 64.0192 63.7645L60.0349 51.2824C59.9438 50.9669 60.0545 50.6317 60.3147 50.4411L71.3631 42.4219C71.6559 42.1984 71.7469 41.7646 71.5648 41.4294Z" fill="white"/>
<path d="M51.9682 57.6924C53.2117 57.5085 53.6674 55.9439 52.7169 55.1091C51.1545 53.7287 48.5242 52.6442 44.7157 53.3804C42.8927 53.7353 41.5776 54.5767 40.6661 55.418C39.7417 56.2791 40.2365 57.8302 41.4865 57.9817L44.2013 58.3102C44.7417 58.3761 45.2039 58.7375 45.3992 59.2504L45.9657 60.7358C46.2717 61.5443 47.4044 61.5313 47.6974 60.7228L48.3094 59.0268C48.4917 58.5139 48.9409 58.1457 49.4747 58.0668L51.9682 57.6924Z" fill="#171314"/>
<path d="M42.1441 47.2073L40.2626 42.4549C39.872 41.4755 38.9995 40.7723 37.9644 40.6079L30.0868 39.3459C29.3836 39.2341 29.0647 40.2004 29.6896 40.5356L32.5673 42.0934C32.5673 42.0934 33.4592 47.4176 39.0972 45.6166L41.0829 47.8646C41.5581 48.4036 42.411 47.8712 42.1441 47.2073Z" fill="#171314"/>
<path d="M51.2653 47.2073L53.1468 42.4549C53.5374 41.4755 54.4098 40.7723 55.445 40.6079L63.3225 39.3459C64.0255 39.2341 64.3447 40.2004 63.7198 40.5356L60.8419 42.0934C60.8419 42.0934 59.9501 47.4176 54.3122 45.6166L52.3265 47.8646C51.8512 48.4036 51.0048 47.8712 51.2653 47.2073Z" fill="#171314"/>
</svg>
