<svg width="880" height="419" viewBox="0 0 880 419" fill="none" xmlns="http://www.w3.org/2000/svg">
<path d="M533.078 195.576C264.032 198.34 69.9163 341.628 3.40626 415.907C1.5823 417.944 0.666992 420.516 0.666992 423.25V495.999C0.666992 502.259 5.7411 507.333 12.0003 507.333H922C928.26 507.333 933.334 502.259 933.334 495.999V75.6639C933.334 62.6647 903.592 54.7416 895.028 64.521C841.242 125.939 730.317 193.551 533.078 195.576Z" fill="#FFF5E2"/>
<path d="M752.412 292.243C483.365 295.007 289.25 438.295 222.74 512.574C220.916 514.611 220 517.183 220 519.917V592.666C220 598.926 225.075 604 231.334 604H1141.33C1147.59 604 1152.67 598.926 1152.67 592.666V172.331C1152.67 159.332 1122.93 151.409 1114.36 161.188C1060.58 222.606 949.65 290.218 752.412 292.243Z" fill="#FFFBF3"/>
</svg>
